<mxfile host="app.diagrams.net" modified="2023-10-26T11:04:38.965Z" agent="Mozilla/5.0 (Windows NT 10.0; Win64; x64; rv:109.0) Gecko/20100101 Firefox/118.0" etag="YI-uuOOkOhX0FlGUGHUF" version="22.0.8" type="device">
  <diagram name="Seite-1" id="GYqesnZQCZs1QaEqhSTq">
    <mxGraphModel dx="1434" dy="746" grid="0" gridSize="10" guides="1" tooltips="1" connect="1" arrows="1" fold="1" page="1" pageScale="1" pageWidth="1654" pageHeight="1169" background="#000000" math="0" shadow="0">
      <root>
        <mxCell id="0" />
        <mxCell id="1" parent="0" />
        <mxCell id="MvTKbooedZdlY5eyJeiM-1" value="&lt;font color=&quot;#ffffff&quot;&gt;«component»&lt;br&gt;&lt;/font&gt;&lt;div&gt;&lt;font color=&quot;#ffffff&quot;&gt;&lt;b&gt;MySQL Database&lt;/b&gt;&lt;/font&gt;&lt;/div&gt;" style="html=1;dropTarget=0;whiteSpace=wrap;fillColor=#000000;strokeColor=#FFFFFF;" parent="1" vertex="1">
          <mxGeometry x="16" y="26" width="620" height="380" as="geometry" />
        </mxCell>
        <mxCell id="MvTKbooedZdlY5eyJeiM-2" value="" style="shape=module;jettyWidth=8;jettyHeight=4;fillColor=#000000;strokeColor=#FFFFFF;" parent="MvTKbooedZdlY5eyJeiM-1" vertex="1">
          <mxGeometry x="1" width="20" height="20" relative="1" as="geometry">
            <mxPoint x="-27" y="7" as="offset" />
          </mxGeometry>
        </mxCell>
        <mxCell id="MvTKbooedZdlY5eyJeiM-44" style="edgeStyle=orthogonalEdgeStyle;rounded=0;orthogonalLoop=1;jettySize=auto;html=1;entryX=0;entryY=0.5;entryDx=0;entryDy=0;strokeColor=#FFFFFF;" parent="1" source="MvTKbooedZdlY5eyJeiM-3" target="MvTKbooedZdlY5eyJeiM-42" edge="1">
          <mxGeometry relative="1" as="geometry" />
        </mxCell>
        <mxCell id="MvTKbooedZdlY5eyJeiM-3" value="&lt;div&gt;&lt;font color=&quot;#ffffff&quot;&gt;«component»&lt;/font&gt;&lt;/div&gt;&lt;div&gt;&lt;font color=&quot;#ffffff&quot;&gt;&lt;b&gt;DataTables&lt;/b&gt;&lt;br&gt;&lt;/font&gt;&lt;/div&gt;" style="html=1;dropTarget=0;whiteSpace=wrap;strokeColor=#FFFFFF;fillColor=#000000;" parent="1" vertex="1">
          <mxGeometry x="40" y="59" width="180" height="90" as="geometry" />
        </mxCell>
        <mxCell id="MvTKbooedZdlY5eyJeiM-4" value="" style="shape=module;jettyWidth=8;jettyHeight=4;strokeColor=#FFFFFF;fillColor=#000000;" parent="MvTKbooedZdlY5eyJeiM-3" vertex="1">
          <mxGeometry x="1" width="20" height="20" relative="1" as="geometry">
            <mxPoint x="-27" y="7" as="offset" />
          </mxGeometry>
        </mxCell>
        <mxCell id="MvTKbooedZdlY5eyJeiM-19" style="edgeStyle=orthogonalEdgeStyle;rounded=0;orthogonalLoop=1;jettySize=auto;html=1;entryX=0.75;entryY=1;entryDx=0;entryDy=0;exitX=0;exitY=0;exitDx=0;exitDy=0;" parent="1" edge="1">
          <mxGeometry relative="1" as="geometry">
            <mxPoint x="460" y="360" as="sourcePoint" />
            <mxPoint x="546.75" y="189" as="targetPoint" />
            <Array as="points">
              <mxPoint x="480" y="360" />
              <mxPoint x="480" y="330" />
              <mxPoint x="345" y="330" />
            </Array>
          </mxGeometry>
        </mxCell>
        <mxCell id="MvTKbooedZdlY5eyJeiM-45" style="edgeStyle=orthogonalEdgeStyle;rounded=0;orthogonalLoop=1;jettySize=auto;html=1;entryX=0;entryY=0.75;entryDx=0;entryDy=0;strokeColor=#FFFFFF;" parent="1" source="MvTKbooedZdlY5eyJeiM-9" target="MvTKbooedZdlY5eyJeiM-42" edge="1">
          <mxGeometry relative="1" as="geometry">
            <Array as="points">
              <mxPoint x="133" y="181" />
              <mxPoint x="309" y="181" />
              <mxPoint x="309" y="133" />
            </Array>
          </mxGeometry>
        </mxCell>
        <mxCell id="MvTKbooedZdlY5eyJeiM-9" value="&lt;div&gt;&lt;font color=&quot;#ffffff&quot;&gt;«component»&lt;b&gt;&lt;br&gt;&lt;/b&gt;&lt;/font&gt;&lt;/div&gt;&lt;div&gt;&lt;font color=&quot;#ffffff&quot;&gt;&lt;b&gt;FriendDatabase&lt;/b&gt;&lt;/font&gt;&lt;/div&gt;" style="html=1;dropTarget=0;whiteSpace=wrap;fillColor=#000000;strokeColor=#FFFFFF;" parent="1" vertex="1">
          <mxGeometry x="42.5" y="194" width="180" height="90" as="geometry" />
        </mxCell>
        <mxCell id="MvTKbooedZdlY5eyJeiM-10" value="" style="shape=module;jettyWidth=8;jettyHeight=4;fillColor=#000000;strokeColor=#FFFFFF;" parent="MvTKbooedZdlY5eyJeiM-9" vertex="1">
          <mxGeometry x="1" width="20" height="20" relative="1" as="geometry">
            <mxPoint x="-27" y="7" as="offset" />
          </mxGeometry>
        </mxCell>
        <mxCell id="MvTKbooedZdlY5eyJeiM-47" style="edgeStyle=orthogonalEdgeStyle;rounded=0;orthogonalLoop=1;jettySize=auto;html=1;entryX=0.5;entryY=1;entryDx=0;entryDy=0;strokeColor=#FFFFFF;" parent="1" source="MvTKbooedZdlY5eyJeiM-11" target="MvTKbooedZdlY5eyJeiM-42" edge="1">
          <mxGeometry relative="1" as="geometry" />
        </mxCell>
        <mxCell id="MvTKbooedZdlY5eyJeiM-11" value="&lt;div&gt;&lt;font color=&quot;#ffffff&quot;&gt;«component»&lt;/font&gt;&lt;/div&gt;&lt;div&gt;&lt;font color=&quot;#ffffff&quot;&gt;&lt;b&gt;DatasetDatabase&lt;/b&gt;&lt;br&gt;&lt;/font&gt;&lt;/div&gt;" style="html=1;dropTarget=0;whiteSpace=wrap;fillColor=#000000;strokeColor=#FFFFFF;" parent="1" vertex="1">
          <mxGeometry x="407.5" y="300" width="180" height="90" as="geometry" />
        </mxCell>
        <mxCell id="MvTKbooedZdlY5eyJeiM-12" value="" style="shape=module;jettyWidth=8;jettyHeight=4;strokeColor=#FFFFFF;fillColor=#000000;" parent="MvTKbooedZdlY5eyJeiM-11" vertex="1">
          <mxGeometry x="1" width="20" height="20" relative="1" as="geometry">
            <mxPoint x="-27" y="7" as="offset" />
          </mxGeometry>
        </mxCell>
        <mxCell id="MvTKbooedZdlY5eyJeiM-46" style="edgeStyle=orthogonalEdgeStyle;rounded=0;orthogonalLoop=1;jettySize=auto;html=1;entryX=0.25;entryY=1;entryDx=0;entryDy=0;strokeColor=#FFFFFF;" parent="1" source="MvTKbooedZdlY5eyJeiM-21" target="MvTKbooedZdlY5eyJeiM-42" edge="1">
          <mxGeometry relative="1" as="geometry">
            <Array as="points">
              <mxPoint x="334" y="244" />
              <mxPoint x="446" y="244" />
            </Array>
          </mxGeometry>
        </mxCell>
        <mxCell id="MvTKbooedZdlY5eyJeiM-21" value="&lt;div&gt;&lt;font color=&quot;#ffffff&quot;&gt;«component»&lt;/font&gt;&lt;/div&gt;&lt;div&gt;&lt;font color=&quot;#ffffff&quot;&gt;&lt;b&gt;UserDatabase&lt;/b&gt;&lt;br&gt;&lt;/font&gt;&lt;/div&gt;" style="html=1;dropTarget=0;whiteSpace=wrap;fillColor=#000000;strokeColor=#FFFFFF;" parent="1" vertex="1">
          <mxGeometry x="204" y="300" width="180" height="90" as="geometry" />
        </mxCell>
        <mxCell id="MvTKbooedZdlY5eyJeiM-22" value="" style="shape=module;jettyWidth=8;jettyHeight=4;strokeColor=#FFFFFF;fillColor=#000000;" parent="MvTKbooedZdlY5eyJeiM-21" vertex="1">
          <mxGeometry x="1" width="20" height="20" relative="1" as="geometry">
            <mxPoint x="-27" y="7" as="offset" />
          </mxGeometry>
        </mxCell>
        <mxCell id="MvTKbooedZdlY5eyJeiM-27" value="&lt;font color=&quot;#ffffff&quot;&gt;«component»&lt;br&gt;&lt;/font&gt;&lt;div&gt;&lt;font color=&quot;#ffffff&quot;&gt;&lt;b&gt;Backend&lt;/b&gt;&lt;/font&gt;&lt;/div&gt;" style="html=1;dropTarget=0;whiteSpace=wrap;fillColor=#000000;strokeColor=#FFFFFF;" parent="1" vertex="1">
          <mxGeometry x="774" y="26" width="718" height="380" as="geometry" />
        </mxCell>
        <mxCell id="MvTKbooedZdlY5eyJeiM-28" value="" style="shape=module;jettyWidth=8;jettyHeight=4;fillColor=#000000;strokeColor=#FFFFFF;" parent="MvTKbooedZdlY5eyJeiM-27" vertex="1">
          <mxGeometry x="1" width="20" height="20" relative="1" as="geometry">
            <mxPoint x="-27" y="7" as="offset" />
          </mxGeometry>
        </mxCell>
        <mxCell id="MvTKbooedZdlY5eyJeiM-32" value="&lt;div&gt;&lt;font color=&quot;#ffffff&quot;&gt;«component»&lt;/font&gt;&lt;/div&gt;&lt;div&gt;&lt;font color=&quot;#ffffff&quot;&gt;&lt;b&gt;Repository&lt;/b&gt;&lt;br&gt;&lt;/font&gt;&lt;/div&gt;" style="html=1;dropTarget=0;whiteSpace=wrap;fillColor=#000000;strokeColor=#FFFFFF;" parent="1" vertex="1">
          <mxGeometry x="809.5" y="46.5" width="180" height="90" as="geometry" />
        </mxCell>
        <mxCell id="MvTKbooedZdlY5eyJeiM-33" value="" style="shape=module;jettyWidth=8;jettyHeight=4;strokeColor=#FFFFFF;fillColor=#000000;" parent="MvTKbooedZdlY5eyJeiM-32" vertex="1">
          <mxGeometry x="1" width="20" height="20" relative="1" as="geometry">
            <mxPoint x="-27" y="7" as="offset" />
          </mxGeometry>
        </mxCell>
        <mxCell id="MvTKbooedZdlY5eyJeiM-36" value="&lt;div&gt;&lt;font color=&quot;#ffffff&quot;&gt;«component»&lt;/font&gt;&lt;/div&gt;&lt;div&gt;&lt;font color=&quot;#ffffff&quot;&gt;&lt;b&gt;ServiceImplementation&lt;br&gt;&lt;/b&gt;&lt;/font&gt;&lt;/div&gt;" style="html=1;dropTarget=0;whiteSpace=wrap;fillColor=#000000;strokeColor=#FFFFFF;" parent="1" vertex="1">
          <mxGeometry x="1265" y="91" width="180" height="90" as="geometry" />
        </mxCell>
        <mxCell id="MvTKbooedZdlY5eyJeiM-37" value="" style="shape=module;jettyWidth=8;jettyHeight=4;strokeColor=#FFFFFF;fillColor=#000000;" parent="MvTKbooedZdlY5eyJeiM-36" vertex="1">
          <mxGeometry x="1" width="20" height="20" relative="1" as="geometry">
            <mxPoint x="-27" y="7" as="offset" />
          </mxGeometry>
        </mxCell>
        <mxCell id="MvTKbooedZdlY5eyJeiM-38" value="&lt;div&gt;&lt;font color=&quot;#ffffff&quot;&gt;«component»&lt;/font&gt;&lt;/div&gt;&lt;div&gt;&lt;font color=&quot;#ffffff&quot;&gt;&lt;b&gt;Service&lt;/b&gt;&lt;br&gt;&lt;/font&gt;&lt;/div&gt;" style="html=1;dropTarget=0;whiteSpace=wrap;fillColor=#000000;strokeColor=#FFFFFF;" parent="1" vertex="1">
          <mxGeometry x="1265" y="250" width="180" height="90" as="geometry" />
        </mxCell>
        <mxCell id="MvTKbooedZdlY5eyJeiM-39" value="" style="shape=module;jettyWidth=8;jettyHeight=4;strokeColor=#FFFFFF;fillColor=#000000;" parent="MvTKbooedZdlY5eyJeiM-38" vertex="1">
          <mxGeometry x="1" width="20" height="20" relative="1" as="geometry">
            <mxPoint x="-27" y="7" as="offset" />
          </mxGeometry>
        </mxCell>
        <mxCell id="MvTKbooedZdlY5eyJeiM-40" value="&lt;div&gt;&lt;font color=&quot;#ffffff&quot;&gt;«component»&lt;/font&gt;&lt;/div&gt;&lt;div&gt;&lt;font color=&quot;#ffffff&quot;&gt;&lt;b&gt;RestService/Controller&lt;/b&gt;&lt;/font&gt;&lt;/div&gt;" style="html=1;dropTarget=0;whiteSpace=wrap;strokeColor=#FFFFFF;fillColor=#000000;" parent="1" vertex="1">
          <mxGeometry x="797" y="237.5" width="205" height="115" as="geometry" />
        </mxCell>
        <mxCell id="MvTKbooedZdlY5eyJeiM-41" value="" style="shape=module;jettyWidth=8;jettyHeight=4;strokeColor=#FFFFFF;fillColor=#000000;" parent="MvTKbooedZdlY5eyJeiM-40" vertex="1">
          <mxGeometry x="1" width="20" height="20" relative="1" as="geometry">
            <mxPoint x="-27" y="7" as="offset" />
          </mxGeometry>
        </mxCell>
        <mxCell id="MvTKbooedZdlY5eyJeiM-42" value="&lt;div&gt;&lt;font color=&quot;#ffffff&quot;&gt;«component»&lt;/font&gt;&lt;/div&gt;&lt;div&gt;&lt;font color=&quot;#ffffff&quot;&gt;&lt;b&gt;Database&lt;/b&gt;&lt;/font&gt;&lt;/div&gt;" style="html=1;dropTarget=0;whiteSpace=wrap;strokeColor=#FFFFFF;fillColor=#000000;" parent="1" vertex="1">
          <mxGeometry x="395" y="46.5" width="205" height="115" as="geometry" />
        </mxCell>
        <mxCell id="MvTKbooedZdlY5eyJeiM-43" value="" style="shape=module;jettyWidth=8;jettyHeight=4;strokeColor=#FFFFFF;fillColor=#000000;" parent="MvTKbooedZdlY5eyJeiM-42" vertex="1">
          <mxGeometry x="1" width="20" height="20" relative="1" as="geometry">
            <mxPoint x="-27" y="7" as="offset" />
          </mxGeometry>
        </mxCell>
        <mxCell id="MvTKbooedZdlY5eyJeiM-52" value="" style="rounded=0;orthogonalLoop=1;jettySize=auto;html=1;endArrow=halfCircle;endFill=0;endSize=6;strokeWidth=1;sketch=0;strokeColor=#FFFFFF;entryX=0.467;entryY=0.267;entryDx=0;entryDy=0;entryPerimeter=0;exitX=0;exitY=0.5;exitDx=0;exitDy=0;" parent="1" source="MvTKbooedZdlY5eyJeiM-40" target="MvTKbooedZdlY5eyJeiM-54" edge="1">
          <mxGeometry relative="1" as="geometry">
            <mxPoint x="699" y="602" as="sourcePoint" />
          </mxGeometry>
        </mxCell>
        <mxCell id="MvTKbooedZdlY5eyJeiM-53" value="" style="rounded=0;orthogonalLoop=1;jettySize=auto;html=1;endArrow=oval;endFill=0;sketch=0;sourcePerimeterSpacing=0;targetPerimeterSpacing=0;endSize=10;entryX=1;entryY=0.5;entryDx=0;entryDy=0;strokeColor=#FFFFFF;" parent="1" source="MvTKbooedZdlY5eyJeiM-54" target="MvTKbooedZdlY5eyJeiM-42" edge="1">
          <mxGeometry relative="1" as="geometry">
            <mxPoint x="659" y="602" as="sourcePoint" />
            <Array as="points">
              <mxPoint x="651" y="160" />
            </Array>
          </mxGeometry>
        </mxCell>
        <mxCell id="MvTKbooedZdlY5eyJeiM-54" value="" style="ellipse;whiteSpace=wrap;html=1;align=center;aspect=fixed;resizable=0;perimeter=centerPerimeter;rotatable=0;allowArrows=0;points=[];outlineConnect=1;" parent="1" vertex="1">
          <mxGeometry x="702" y="228" width="10" height="10" as="geometry" />
        </mxCell>
        <mxCell id="MvTKbooedZdlY5eyJeiM-59" value="" style="rounded=0;orthogonalLoop=1;jettySize=auto;html=1;endArrow=halfCircle;endFill=0;endSize=6;strokeWidth=1;sketch=0;strokeColor=#FFFFFF;exitX=1;exitY=0.5;exitDx=0;exitDy=0;" parent="1" source="MvTKbooedZdlY5eyJeiM-40" target="MvTKbooedZdlY5eyJeiM-61" edge="1">
          <mxGeometry relative="1" as="geometry">
            <mxPoint x="948" y="506" as="sourcePoint" />
          </mxGeometry>
        </mxCell>
        <mxCell id="MvTKbooedZdlY5eyJeiM-60" value="" style="rounded=0;orthogonalLoop=1;jettySize=auto;html=1;endArrow=oval;endFill=0;sketch=0;sourcePerimeterSpacing=0;targetPerimeterSpacing=0;endSize=10;strokeColor=#FFFFFF;exitX=0;exitY=0.5;exitDx=0;exitDy=0;entryX=0.533;entryY=0.267;entryDx=0;entryDy=0;entryPerimeter=0;" parent="1" source="MvTKbooedZdlY5eyJeiM-38" target="MvTKbooedZdlY5eyJeiM-61" edge="1">
          <mxGeometry relative="1" as="geometry">
            <mxPoint x="908" y="506" as="sourcePoint" />
            <mxPoint x="925" y="489" as="targetPoint" />
          </mxGeometry>
        </mxCell>
        <mxCell id="MvTKbooedZdlY5eyJeiM-61" value="" style="ellipse;whiteSpace=wrap;html=1;align=center;aspect=fixed;resizable=0;perimeter=centerPerimeter;rotatable=0;allowArrows=0;points=[];outlineConnect=1;" parent="1" vertex="1">
          <mxGeometry x="1124" y="293" width="10" height="10" as="geometry" />
        </mxCell>
        <mxCell id="MvTKbooedZdlY5eyJeiM-62" value="" style="rounded=0;orthogonalLoop=1;jettySize=auto;html=1;endArrow=oval;endFill=0;sketch=0;sourcePerimeterSpacing=0;targetPerimeterSpacing=0;endSize=10;strokeColor=#FFFFFF;exitX=0.5;exitY=1;exitDx=0;exitDy=0;entryX=0.7;entryY=0.9;entryDx=0;entryDy=0;entryPerimeter=0;" parent="1" source="MvTKbooedZdlY5eyJeiM-32" target="MvTKbooedZdlY5eyJeiM-64" edge="1">
          <mxGeometry relative="1" as="geometry">
            <mxPoint x="1104" y="181" as="sourcePoint" />
            <mxPoint x="990" y="175" as="targetPoint" />
          </mxGeometry>
        </mxCell>
        <mxCell id="MvTKbooedZdlY5eyJeiM-63" value="" style="rounded=0;orthogonalLoop=1;jettySize=auto;html=1;endArrow=halfCircle;endFill=0;endSize=6;strokeWidth=1;sketch=0;strokeColor=#FFFFFF;exitX=0.5;exitY=0;exitDx=0;exitDy=0;entryX=0.95;entryY=0.7;entryDx=0;entryDy=0;entryPerimeter=0;" parent="1" source="MvTKbooedZdlY5eyJeiM-40" target="MvTKbooedZdlY5eyJeiM-64" edge="1">
          <mxGeometry relative="1" as="geometry">
            <mxPoint x="870" y="182" as="sourcePoint" />
            <mxPoint x="923" y="184" as="targetPoint" />
          </mxGeometry>
        </mxCell>
        <mxCell id="MvTKbooedZdlY5eyJeiM-64" value="" style="ellipse;whiteSpace=wrap;html=1;align=center;aspect=fixed;resizable=0;perimeter=centerPerimeter;rotatable=0;allowArrows=0;points=[];outlineConnect=1;" parent="1" vertex="1">
          <mxGeometry x="894.5" y="178" width="10" height="10" as="geometry" />
        </mxCell>
        <mxCell id="MvTKbooedZdlY5eyJeiM-70" value="" style="rounded=0;orthogonalLoop=1;jettySize=auto;html=1;endArrow=oval;endFill=0;sketch=0;sourcePerimeterSpacing=0;targetPerimeterSpacing=0;endSize=10;strokeColor=#FFFFFF;exitX=0.533;exitY=0.967;exitDx=0;exitDy=0;exitPerimeter=0;entryX=0.533;entryY=0.3;entryDx=0;entryDy=0;entryPerimeter=0;" parent="1" edge="1">
          <mxGeometry relative="1" as="geometry">
            <mxPoint x="1353" y="223" as="sourcePoint" />
            <mxPoint x="1353" y="223" as="targetPoint" />
          </mxGeometry>
        </mxCell>
        <mxCell id="MvTKbooedZdlY5eyJeiM-78" value="" style="rounded=0;orthogonalLoop=1;jettySize=auto;html=1;endArrow=halfCircle;endFill=0;endSize=6;strokeWidth=1;sketch=0;strokeColor=#FFFFFF;exitX=0;exitY=0.5;exitDx=0;exitDy=0;" parent="1" source="MvTKbooedZdlY5eyJeiM-36" target="MvTKbooedZdlY5eyJeiM-80" edge="1">
          <mxGeometry relative="1" as="geometry">
            <mxPoint x="948" y="506" as="sourcePoint" />
          </mxGeometry>
        </mxCell>
        <mxCell id="MvTKbooedZdlY5eyJeiM-79" value="" style="rounded=0;orthogonalLoop=1;jettySize=auto;html=1;endArrow=oval;endFill=0;sketch=0;sourcePerimeterSpacing=0;targetPerimeterSpacing=0;endSize=10;strokeColor=#FFFFFF;exitX=1;exitY=0.5;exitDx=0;exitDy=0;" parent="1" source="MvTKbooedZdlY5eyJeiM-32" target="MvTKbooedZdlY5eyJeiM-80" edge="1">
          <mxGeometry relative="1" as="geometry">
            <mxPoint x="908" y="506" as="sourcePoint" />
            <mxPoint x="907" y="486" as="targetPoint" />
          </mxGeometry>
        </mxCell>
        <mxCell id="MvTKbooedZdlY5eyJeiM-80" value="" style="ellipse;whiteSpace=wrap;html=1;align=center;aspect=fixed;resizable=0;perimeter=centerPerimeter;rotatable=0;allowArrows=0;points=[];outlineConnect=1;" parent="1" vertex="1">
          <mxGeometry x="1187" y="123" width="10" height="10" as="geometry" />
        </mxCell>
        <mxCell id="MvTKbooedZdlY5eyJeiM-81" value="" style="rounded=0;orthogonalLoop=1;jettySize=auto;html=1;endArrow=oval;endFill=0;sketch=0;sourcePerimeterSpacing=0;targetPerimeterSpacing=0;endSize=10;strokeColor=#FFFFFF;exitX=1;exitY=0.75;exitDx=0;exitDy=0;entryX=0.133;entryY=0.35;entryDx=0;entryDy=0;entryPerimeter=0;" parent="1" source="MvTKbooedZdlY5eyJeiM-32" target="MvTKbooedZdlY5eyJeiM-82" edge="1">
          <mxGeometry relative="1" as="geometry">
            <mxPoint x="1000" y="102" as="sourcePoint" />
            <mxPoint x="1202" y="138" as="targetPoint" />
          </mxGeometry>
        </mxCell>
        <mxCell id="MvTKbooedZdlY5eyJeiM-82" value="" style="ellipse;whiteSpace=wrap;html=1;align=center;aspect=fixed;resizable=0;perimeter=centerPerimeter;rotatable=0;allowArrows=0;points=[];outlineConnect=1;" parent="1" vertex="1">
          <mxGeometry x="1207" y="194" width="10" height="10" as="geometry" />
        </mxCell>
        <mxCell id="MvTKbooedZdlY5eyJeiM-83" value="" style="rounded=0;orthogonalLoop=1;jettySize=auto;html=1;endArrow=halfCircle;endFill=0;endSize=6;strokeWidth=1;sketch=0;strokeColor=#FFFFFF;exitX=0;exitY=0.25;exitDx=0;exitDy=0;entryX=0.267;entryY=0.883;entryDx=0;entryDy=0;entryPerimeter=0;" parent="1" source="MvTKbooedZdlY5eyJeiM-38" target="MvTKbooedZdlY5eyJeiM-82" edge="1">
          <mxGeometry relative="1" as="geometry">
            <mxPoint x="1265" y="271" as="sourcePoint" />
            <mxPoint x="1192" y="263" as="targetPoint" />
            <Array as="points">
              <mxPoint x="1215" y="201" />
            </Array>
          </mxGeometry>
        </mxCell>
        <mxCell id="MvTKbooedZdlY5eyJeiM-84" value="" style="rounded=0;orthogonalLoop=1;jettySize=auto;html=1;endArrow=halfCircle;endFill=0;endSize=6;strokeWidth=1;sketch=0;strokeColor=#FFFFFF;" parent="1" source="MvTKbooedZdlY5eyJeiM-38" target="MvTKbooedZdlY5eyJeiM-86" edge="1">
          <mxGeometry relative="1" as="geometry">
            <mxPoint x="948" y="420" as="sourcePoint" />
          </mxGeometry>
        </mxCell>
        <mxCell id="MvTKbooedZdlY5eyJeiM-85" value="" style="rounded=0;orthogonalLoop=1;jettySize=auto;html=1;endArrow=oval;endFill=0;sketch=0;sourcePerimeterSpacing=0;targetPerimeterSpacing=0;endSize=10;strokeColor=#FFFFFF;entryX=0.867;entryY=0.333;entryDx=0;entryDy=0;entryPerimeter=0;exitX=0.5;exitY=1;exitDx=0;exitDy=0;" parent="1" source="MvTKbooedZdlY5eyJeiM-36" target="MvTKbooedZdlY5eyJeiM-86" edge="1">
          <mxGeometry relative="1" as="geometry">
            <mxPoint x="1338.5" y="178" as="sourcePoint" />
            <mxPoint x="1363.5" y="224" as="targetPoint" />
          </mxGeometry>
        </mxCell>
        <mxCell id="MvTKbooedZdlY5eyJeiM-86" value="" style="ellipse;whiteSpace=wrap;html=1;align=center;aspect=fixed;resizable=0;perimeter=centerPerimeter;rotatable=0;allowArrows=0;points=[];outlineConnect=1;" parent="1" vertex="1">
          <mxGeometry x="1350" y="211" width="10" height="10" as="geometry" />
        </mxCell>
        <mxCell id="MvTKbooedZdlY5eyJeiM-91" style="edgeStyle=orthogonalEdgeStyle;rounded=0;orthogonalLoop=1;jettySize=auto;html=1;exitX=0;exitY=1;exitDx=0;exitDy=0;" parent="1" source="MvTKbooedZdlY5eyJeiM-87" edge="1">
          <mxGeometry relative="1" as="geometry">
            <mxPoint x="761.3333333333335" y="863.6666666666667" as="targetPoint" />
          </mxGeometry>
        </mxCell>
        <mxCell id="MvTKbooedZdlY5eyJeiM-87" value="&lt;font color=&quot;#ffffff&quot;&gt;«component»&lt;br&gt;&lt;/font&gt;&lt;div&gt;&lt;font color=&quot;#ffffff&quot;&gt;&lt;b&gt;Frontend&lt;/b&gt;&lt;/font&gt;&lt;/div&gt;" style="html=1;dropTarget=0;whiteSpace=wrap;fillColor=#000000;strokeColor=#FFFFFF;" parent="1" vertex="1">
          <mxGeometry x="395" y="474" width="922" height="450" as="geometry" />
        </mxCell>
        <mxCell id="MvTKbooedZdlY5eyJeiM-88" value="" style="shape=module;jettyWidth=8;jettyHeight=4;fillColor=#000000;strokeColor=#FFFFFF;" parent="MvTKbooedZdlY5eyJeiM-87" vertex="1">
          <mxGeometry x="1" width="20" height="20" relative="1" as="geometry">
            <mxPoint x="-27" y="7" as="offset" />
          </mxGeometry>
        </mxCell>
        <mxCell id="MvTKbooedZdlY5eyJeiM-89" value="&lt;div&gt;&lt;font color=&quot;#ffffff&quot;&gt;«component»&lt;/font&gt;&lt;/div&gt;&lt;div&gt;&lt;font color=&quot;#ffffff&quot;&gt;&lt;b&gt;WebService&lt;/b&gt;&lt;/font&gt;&lt;/div&gt;" style="html=1;dropTarget=0;whiteSpace=wrap;strokeColor=#FFFFFF;fillColor=#000000;" parent="1" vertex="1">
          <mxGeometry x="736" y="508.5" width="205" height="115" as="geometry" />
        </mxCell>
        <mxCell id="MvTKbooedZdlY5eyJeiM-90" value="" style="shape=module;jettyWidth=8;jettyHeight=4;strokeColor=#FFFFFF;fillColor=#000000;" parent="MvTKbooedZdlY5eyJeiM-89" vertex="1">
          <mxGeometry x="1" width="20" height="20" relative="1" as="geometry">
            <mxPoint x="-27" y="7" as="offset" />
          </mxGeometry>
        </mxCell>
        <mxCell id="MvTKbooedZdlY5eyJeiM-92" value="" style="rounded=0;orthogonalLoop=1;jettySize=auto;html=1;endArrow=halfCircle;endFill=0;endSize=6;strokeWidth=1;sketch=0;exitX=0.554;exitY=1.051;exitDx=0;exitDy=0;strokeColor=#FFFFFF;entryX=0.9;entryY=0.1;entryDx=0;entryDy=0;entryPerimeter=0;exitPerimeter=0;" parent="1" source="MvTKbooedZdlY5eyJeiM-40" target="MvTKbooedZdlY5eyJeiM-94" edge="1">
          <mxGeometry relative="1" as="geometry">
            <mxPoint x="976.5" y="345" as="sourcePoint" />
            <mxPoint x="881" y="414.5" as="targetPoint" />
          </mxGeometry>
        </mxCell>
        <mxCell id="MvTKbooedZdlY5eyJeiM-95" value="" style="rounded=0;orthogonalLoop=1;jettySize=auto;html=1;endArrow=oval;endFill=0;sketch=0;sourcePerimeterSpacing=0;targetPerimeterSpacing=0;endSize=10;exitX=0.5;exitY=0;exitDx=0;exitDy=0;strokeColor=#FFFFFF;" parent="1" source="MvTKbooedZdlY5eyJeiM-89" target="MvTKbooedZdlY5eyJeiM-94" edge="1">
          <mxGeometry relative="1" as="geometry">
            <mxPoint x="725" y="503" as="sourcePoint" />
            <mxPoint x="869" y="425" as="targetPoint" />
          </mxGeometry>
        </mxCell>
        <mxCell id="MvTKbooedZdlY5eyJeiM-94" value="" style="ellipse;whiteSpace=wrap;html=1;align=center;aspect=fixed;resizable=0;perimeter=centerPerimeter;rotatable=0;allowArrows=0;points=[];outlineConnect=1;" parent="1" vertex="1">
          <mxGeometry x="864" y="419.5" width="10" height="10" as="geometry" />
        </mxCell>
        <mxCell id="MvTKbooedZdlY5eyJeiM-96" value="&lt;div&gt;&lt;font color=&quot;#ffffff&quot;&gt;«component»&lt;/font&gt;&lt;/div&gt;&lt;div&gt;&lt;font color=&quot;#ffffff&quot;&gt;&lt;b&gt;ChessGame&lt;/b&gt;&lt;br&gt;&lt;/font&gt;&lt;/div&gt;" style="html=1;dropTarget=0;whiteSpace=wrap;fillColor=#000000;strokeColor=#FFFFFF;" parent="1" vertex="1">
          <mxGeometry x="864" y="800" width="180" height="90" as="geometry" />
        </mxCell>
        <mxCell id="MvTKbooedZdlY5eyJeiM-97" value="" style="shape=module;jettyWidth=8;jettyHeight=4;strokeColor=#FFFFFF;fillColor=#000000;" parent="MvTKbooedZdlY5eyJeiM-96" vertex="1">
          <mxGeometry x="1" width="20" height="20" relative="1" as="geometry">
            <mxPoint x="-27" y="7" as="offset" />
          </mxGeometry>
        </mxCell>
        <mxCell id="MvTKbooedZdlY5eyJeiM-98" value="&lt;div&gt;&lt;font color=&quot;#ffffff&quot;&gt;«component»&lt;/font&gt;&lt;/div&gt;&lt;div&gt;&lt;font color=&quot;#ffffff&quot;&gt;&lt;b&gt;Friendlist&lt;/b&gt;&lt;br&gt;&lt;/font&gt;&lt;/div&gt;" style="html=1;dropTarget=0;whiteSpace=wrap;fillColor=#000000;strokeColor=#FFFFFF;" parent="1" vertex="1">
          <mxGeometry x="629.5" y="800" width="180" height="90" as="geometry" />
        </mxCell>
        <mxCell id="MvTKbooedZdlY5eyJeiM-99" value="" style="shape=module;jettyWidth=8;jettyHeight=4;strokeColor=#FFFFFF;fillColor=#000000;" parent="MvTKbooedZdlY5eyJeiM-98" vertex="1">
          <mxGeometry x="1" width="20" height="20" relative="1" as="geometry">
            <mxPoint x="-27" y="7" as="offset" />
          </mxGeometry>
        </mxCell>
        <mxCell id="MvTKbooedZdlY5eyJeiM-100" value="&lt;div&gt;&lt;font color=&quot;#ffffff&quot;&gt;«component»&lt;/font&gt;&lt;/div&gt;&lt;div&gt;&lt;font color=&quot;#ffffff&quot;&gt;&lt;b&gt;Registration&lt;/b&gt;&lt;br&gt;&lt;/font&gt;&lt;/div&gt;" style="html=1;dropTarget=0;whiteSpace=wrap;fillColor=#000000;strokeColor=#FFFFFF;" parent="1" vertex="1">
          <mxGeometry x="420" y="681" width="180" height="90" as="geometry" />
        </mxCell>
        <mxCell id="MvTKbooedZdlY5eyJeiM-101" value="" style="shape=module;jettyWidth=8;jettyHeight=4;strokeColor=#FFFFFF;fillColor=#000000;" parent="MvTKbooedZdlY5eyJeiM-100" vertex="1">
          <mxGeometry x="1" width="20" height="20" relative="1" as="geometry">
            <mxPoint x="-27" y="7" as="offset" />
          </mxGeometry>
        </mxCell>
        <mxCell id="MvTKbooedZdlY5eyJeiM-102" value="&lt;div&gt;&lt;font color=&quot;#ffffff&quot;&gt;«component»&lt;/font&gt;&lt;/div&gt;&lt;div&gt;&lt;font color=&quot;#ffffff&quot;&gt;&lt;b&gt;Login&lt;/b&gt;&lt;/font&gt;&lt;br&gt;&lt;/div&gt;" style="html=1;dropTarget=0;whiteSpace=wrap;fillColor=#000000;strokeColor=#FFFFFF;" parent="1" vertex="1">
          <mxGeometry x="416" y="521" width="180" height="90" as="geometry" />
        </mxCell>
        <mxCell id="MvTKbooedZdlY5eyJeiM-103" value="" style="shape=module;jettyWidth=8;jettyHeight=4;strokeColor=#FFFFFF;fillColor=#000000;" parent="MvTKbooedZdlY5eyJeiM-102" vertex="1">
          <mxGeometry x="1" width="20" height="20" relative="1" as="geometry">
            <mxPoint x="-27" y="7" as="offset" />
          </mxGeometry>
        </mxCell>
        <mxCell id="MvTKbooedZdlY5eyJeiM-104" value="&lt;div&gt;&lt;font color=&quot;#ffffff&quot;&gt;«component»&lt;/font&gt;&lt;/div&gt;&lt;div&gt;&lt;font color=&quot;#ffffff&quot;&gt;&lt;b&gt;Friends&lt;/b&gt;&lt;br&gt;&lt;/font&gt;&lt;/div&gt;" style="html=1;dropTarget=0;whiteSpace=wrap;fillColor=#000000;strokeColor=#FFFFFF;" parent="1" vertex="1">
          <mxGeometry x="1124" y="557" width="180" height="90" as="geometry" />
        </mxCell>
        <mxCell id="MvTKbooedZdlY5eyJeiM-105" value="" style="shape=module;jettyWidth=8;jettyHeight=4;strokeColor=#FFFFFF;fillColor=#000000;" parent="MvTKbooedZdlY5eyJeiM-104" vertex="1">
          <mxGeometry x="1" width="20" height="20" relative="1" as="geometry">
            <mxPoint x="-27" y="7" as="offset" />
          </mxGeometry>
        </mxCell>
        <mxCell id="MvTKbooedZdlY5eyJeiM-106" value="&lt;div&gt;&lt;font color=&quot;#ffffff&quot;&gt;«component»&lt;/font&gt;&lt;/div&gt;&lt;div&gt;&lt;font color=&quot;#ffffff&quot;&gt;&lt;b&gt;HomePage&lt;/b&gt;&lt;br&gt;&lt;/font&gt;&lt;/div&gt;" style="html=1;dropTarget=0;whiteSpace=wrap;fillColor=#000000;strokeColor=#FFFFFF;" parent="1" vertex="1">
          <mxGeometry x="932" y="662" width="180" height="90" as="geometry" />
        </mxCell>
        <mxCell id="MvTKbooedZdlY5eyJeiM-107" value="" style="shape=module;jettyWidth=8;jettyHeight=4;strokeColor=#FFFFFF;fillColor=#000000;" parent="MvTKbooedZdlY5eyJeiM-106" vertex="1">
          <mxGeometry x="1" width="20" height="20" relative="1" as="geometry">
            <mxPoint x="-27" y="7" as="offset" />
          </mxGeometry>
        </mxCell>
        <mxCell id="MvTKbooedZdlY5eyJeiM-108" value="&lt;div&gt;&lt;font color=&quot;#ffffff&quot;&gt;«component»&lt;/font&gt;&lt;/div&gt;&lt;div&gt;&lt;font color=&quot;#ffffff&quot;&gt;&lt;b&gt;UserProfile&lt;/b&gt;&lt;br&gt;&lt;/font&gt;&lt;/div&gt;" style="html=1;dropTarget=0;whiteSpace=wrap;fillColor=#000000;strokeColor=#FFFFFF;" parent="1" vertex="1">
          <mxGeometry x="1092" y="798" width="180" height="90" as="geometry" />
        </mxCell>
        <mxCell id="MvTKbooedZdlY5eyJeiM-109" value="" style="shape=module;jettyWidth=8;jettyHeight=4;strokeColor=#FFFFFF;fillColor=#000000;" parent="MvTKbooedZdlY5eyJeiM-108" vertex="1">
          <mxGeometry x="1" width="20" height="20" relative="1" as="geometry">
            <mxPoint x="-27" y="7" as="offset" />
          </mxGeometry>
        </mxCell>
        <mxCell id="GyxYuytBnQCfA59tnKjW-6" value="" style="rounded=0;orthogonalLoop=1;jettySize=auto;html=1;endArrow=halfCircle;endFill=0;endSize=6;strokeWidth=1;sketch=0;exitX=1;exitY=1;exitDx=0;exitDy=0;strokeColor=#FFFFFF;entryX=0.2;entryY=0.4;entryDx=0;entryDy=0;entryPerimeter=0;" edge="1" parent="1" source="MvTKbooedZdlY5eyJeiM-106" target="GyxYuytBnQCfA59tnKjW-5">
          <mxGeometry relative="1" as="geometry">
            <mxPoint x="283" y="523" as="sourcePoint" />
            <mxPoint x="241" y="591" as="targetPoint" />
          </mxGeometry>
        </mxCell>
        <mxCell id="GyxYuytBnQCfA59tnKjW-5" value="" style="ellipse;whiteSpace=wrap;html=1;align=center;aspect=fixed;resizable=0;perimeter=centerPerimeter;rotatable=0;allowArrows=0;points=[];outlineConnect=1;" vertex="1" parent="1">
          <mxGeometry x="1150" y="771" width="10" height="10" as="geometry" />
        </mxCell>
        <mxCell id="GyxYuytBnQCfA59tnKjW-7" value="" style="rounded=0;orthogonalLoop=1;jettySize=auto;html=1;endArrow=oval;endFill=0;sketch=0;sourcePerimeterSpacing=0;targetPerimeterSpacing=0;endSize=10;exitX=0.5;exitY=0;exitDx=0;exitDy=0;strokeColor=#FFFFFF;entryX=0.6;entryY=1;entryDx=0;entryDy=0;entryPerimeter=0;" edge="1" parent="1" source="MvTKbooedZdlY5eyJeiM-108" target="GyxYuytBnQCfA59tnKjW-5">
          <mxGeometry relative="1" as="geometry">
            <mxPoint x="170" y="725.5" as="sourcePoint" />
            <mxPoint x="235" y="622" as="targetPoint" />
          </mxGeometry>
        </mxCell>
        <mxCell id="GyxYuytBnQCfA59tnKjW-8" value="" style="rounded=0;orthogonalLoop=1;jettySize=auto;html=1;endArrow=halfCircle;endFill=0;endSize=6;strokeWidth=1;sketch=0;exitX=1;exitY=0.5;exitDx=0;exitDy=0;strokeColor=#FFFFFF;entryX=0.2;entryY=0.4;entryDx=0;entryDy=0;entryPerimeter=0;" edge="1" parent="1" target="GyxYuytBnQCfA59tnKjW-9" source="MvTKbooedZdlY5eyJeiM-89">
          <mxGeometry relative="1" as="geometry">
            <mxPoint x="293" y="533" as="sourcePoint" />
            <mxPoint x="251" y="601" as="targetPoint" />
          </mxGeometry>
        </mxCell>
        <mxCell id="GyxYuytBnQCfA59tnKjW-9" value="" style="ellipse;whiteSpace=wrap;html=1;align=center;aspect=fixed;resizable=0;perimeter=centerPerimeter;rotatable=0;allowArrows=0;points=[];outlineConnect=1;" vertex="1" parent="1">
          <mxGeometry x="1024" y="577" width="10" height="10" as="geometry" />
        </mxCell>
        <mxCell id="GyxYuytBnQCfA59tnKjW-10" value="" style="rounded=0;orthogonalLoop=1;jettySize=auto;html=1;endArrow=oval;endFill=0;sketch=0;sourcePerimeterSpacing=0;targetPerimeterSpacing=0;endSize=10;exitX=0;exitY=0.5;exitDx=0;exitDy=0;strokeColor=#FFFFFF;entryX=0.3;entryY=0.6;entryDx=0;entryDy=0;entryPerimeter=0;" edge="1" parent="1" target="GyxYuytBnQCfA59tnKjW-9" source="MvTKbooedZdlY5eyJeiM-104">
          <mxGeometry relative="1" as="geometry">
            <mxPoint x="180" y="735.5" as="sourcePoint" />
            <mxPoint x="1384" y="551" as="targetPoint" />
          </mxGeometry>
        </mxCell>
        <mxCell id="GyxYuytBnQCfA59tnKjW-11" value="" style="rounded=0;orthogonalLoop=1;jettySize=auto;html=1;endArrow=halfCircle;endFill=0;endSize=6;strokeWidth=1;sketch=0;exitX=0;exitY=0.5;exitDx=0;exitDy=0;strokeColor=#FFFFFF;entryX=0.9;entryY=0.9;entryDx=0;entryDy=0;entryPerimeter=0;" edge="1" parent="1" source="GyxYuytBnQCfA59tnKjW-19">
          <mxGeometry relative="1" as="geometry">
            <mxPoint x="303" y="543" as="sourcePoint" />
            <mxPoint x="659" y="566" as="targetPoint" />
          </mxGeometry>
        </mxCell>
        <mxCell id="GyxYuytBnQCfA59tnKjW-14" value="" style="rounded=0;orthogonalLoop=1;jettySize=auto;html=1;endArrow=halfCircle;endFill=0;endSize=6;strokeWidth=1;sketch=0;exitX=0;exitY=0.5;exitDx=0;exitDy=0;strokeColor=#FFFFFF;entryX=0.1;entryY=0.4;entryDx=0;entryDy=0;entryPerimeter=0;" edge="1" parent="1" target="GyxYuytBnQCfA59tnKjW-15" source="MvTKbooedZdlY5eyJeiM-89">
          <mxGeometry relative="1" as="geometry">
            <mxPoint x="1152" y="589" as="sourcePoint" />
            <mxPoint x="698" y="648.5" as="targetPoint" />
          </mxGeometry>
        </mxCell>
        <mxCell id="GyxYuytBnQCfA59tnKjW-15" value="" style="ellipse;whiteSpace=wrap;html=1;align=center;aspect=fixed;resizable=0;perimeter=centerPerimeter;rotatable=0;allowArrows=0;points=[];outlineConnect=1;" vertex="1" parent="1">
          <mxGeometry x="660" y="644.5" width="10" height="10" as="geometry" />
        </mxCell>
        <mxCell id="GyxYuytBnQCfA59tnKjW-16" value="" style="rounded=0;orthogonalLoop=1;jettySize=auto;html=1;endArrow=oval;endFill=0;sketch=0;sourcePerimeterSpacing=0;targetPerimeterSpacing=0;endSize=10;exitX=1;exitY=0.5;exitDx=0;exitDy=0;strokeColor=#FFFFFF;entryX=0.2;entryY=0.75;entryDx=0;entryDy=0;entryPerimeter=0;" edge="1" parent="1" target="GyxYuytBnQCfA59tnKjW-15" source="MvTKbooedZdlY5eyJeiM-100">
          <mxGeometry relative="1" as="geometry">
            <mxPoint x="570" y="722" as="sourcePoint" />
            <mxPoint x="654" y="644" as="targetPoint" />
          </mxGeometry>
        </mxCell>
        <mxCell id="GyxYuytBnQCfA59tnKjW-18" value="" style="rounded=0;orthogonalLoop=1;jettySize=auto;html=1;endArrow=oval;endFill=0;sketch=0;sourcePerimeterSpacing=0;targetPerimeterSpacing=0;endSize=10;exitX=1;exitY=0.5;exitDx=0;exitDy=0;strokeColor=#FFFFFF;" edge="1" parent="1" source="MvTKbooedZdlY5eyJeiM-102" target="GyxYuytBnQCfA59tnKjW-19">
          <mxGeometry relative="1" as="geometry">
            <mxPoint x="610" y="736" as="sourcePoint" />
            <mxPoint x="667" y="558" as="targetPoint" />
          </mxGeometry>
        </mxCell>
        <mxCell id="GyxYuytBnQCfA59tnKjW-20" value="" style="rounded=0;orthogonalLoop=1;jettySize=auto;html=1;endArrow=halfCircle;endFill=0;endSize=6;strokeWidth=1;sketch=0;exitX=0;exitY=0.5;exitDx=0;exitDy=0;strokeColor=#FFFFFF;entryX=0.8;entryY=0.6;entryDx=0;entryDy=0;entryPerimeter=0;" edge="1" parent="1" source="MvTKbooedZdlY5eyJeiM-89" target="GyxYuytBnQCfA59tnKjW-19">
          <mxGeometry relative="1" as="geometry">
            <mxPoint x="725" y="562" as="sourcePoint" />
            <mxPoint x="659" y="566" as="targetPoint" />
          </mxGeometry>
        </mxCell>
        <mxCell id="GyxYuytBnQCfA59tnKjW-19" value="" style="ellipse;whiteSpace=wrap;html=1;align=center;aspect=fixed;resizable=0;perimeter=centerPerimeter;rotatable=0;allowArrows=0;points=[];outlineConnect=1;" vertex="1" parent="1">
          <mxGeometry x="650" y="561" width="10" height="10" as="geometry" />
        </mxCell>
        <mxCell id="GyxYuytBnQCfA59tnKjW-21" value="" style="rounded=0;orthogonalLoop=1;jettySize=auto;html=1;endArrow=halfCircle;endFill=0;endSize=6;strokeWidth=1;sketch=0;exitX=0.5;exitY=1;exitDx=0;exitDy=0;strokeColor=#FFFFFF;entryX=0.2;entryY=0.4;entryDx=0;entryDy=0;entryPerimeter=0;" edge="1" parent="1" target="GyxYuytBnQCfA59tnKjW-22" source="MvTKbooedZdlY5eyJeiM-106">
          <mxGeometry relative="1" as="geometry">
            <mxPoint x="293" y="533" as="sourcePoint" />
            <mxPoint x="251" y="601" as="targetPoint" />
          </mxGeometry>
        </mxCell>
        <mxCell id="GyxYuytBnQCfA59tnKjW-22" value="" style="ellipse;whiteSpace=wrap;html=1;align=center;aspect=fixed;resizable=0;perimeter=centerPerimeter;rotatable=0;allowArrows=0;points=[];outlineConnect=1;" vertex="1" parent="1">
          <mxGeometry x="982" y="778" width="10" height="10" as="geometry" />
        </mxCell>
        <mxCell id="GyxYuytBnQCfA59tnKjW-23" value="" style="rounded=0;orthogonalLoop=1;jettySize=auto;html=1;endArrow=oval;endFill=0;sketch=0;sourcePerimeterSpacing=0;targetPerimeterSpacing=0;endSize=10;exitX=0.5;exitY=0;exitDx=0;exitDy=0;strokeColor=#FFFFFF;" edge="1" parent="1" target="GyxYuytBnQCfA59tnKjW-22" source="MvTKbooedZdlY5eyJeiM-96">
          <mxGeometry relative="1" as="geometry">
            <mxPoint x="180" y="735.5" as="sourcePoint" />
            <mxPoint x="237" y="692" as="targetPoint" />
          </mxGeometry>
        </mxCell>
        <mxCell id="GyxYuytBnQCfA59tnKjW-24" value="" style="rounded=0;orthogonalLoop=1;jettySize=auto;html=1;endArrow=halfCircle;endFill=0;endSize=6;strokeWidth=1;sketch=0;exitX=0;exitY=1;exitDx=0;exitDy=0;strokeColor=#FFFFFF;entryX=0.2;entryY=0.4;entryDx=0;entryDy=0;entryPerimeter=0;" edge="1" parent="1" target="GyxYuytBnQCfA59tnKjW-25" source="MvTKbooedZdlY5eyJeiM-106">
          <mxGeometry relative="1" as="geometry">
            <mxPoint x="303" y="543" as="sourcePoint" />
            <mxPoint x="261" y="611" as="targetPoint" />
          </mxGeometry>
        </mxCell>
        <mxCell id="GyxYuytBnQCfA59tnKjW-25" value="" style="ellipse;whiteSpace=wrap;html=1;align=center;aspect=fixed;resizable=0;perimeter=centerPerimeter;rotatable=0;allowArrows=0;points=[];outlineConnect=1;" vertex="1" parent="1">
          <mxGeometry x="833.5" y="761" width="10" height="10" as="geometry" />
        </mxCell>
        <mxCell id="GyxYuytBnQCfA59tnKjW-26" value="" style="rounded=0;orthogonalLoop=1;jettySize=auto;html=1;endArrow=oval;endFill=0;sketch=0;sourcePerimeterSpacing=0;targetPerimeterSpacing=0;endSize=10;exitX=0.5;exitY=0;exitDx=0;exitDy=0;strokeColor=#FFFFFF;entryX=0.45;entryY=0.8;entryDx=0;entryDy=0;entryPerimeter=0;" edge="1" parent="1" target="GyxYuytBnQCfA59tnKjW-25" source="MvTKbooedZdlY5eyJeiM-98">
          <mxGeometry relative="1" as="geometry">
            <mxPoint x="190" y="745.5" as="sourcePoint" />
            <mxPoint x="247" y="715" as="targetPoint" />
          </mxGeometry>
        </mxCell>
        <mxCell id="GyxYuytBnQCfA59tnKjW-27" value="" style="rounded=0;orthogonalLoop=1;jettySize=auto;html=1;endArrow=halfCircle;endFill=0;endSize=6;strokeWidth=1;sketch=0;exitX=1;exitY=1;exitDx=0;exitDy=0;strokeColor=#FFFFFF;entryX=0.2;entryY=0.4;entryDx=0;entryDy=0;entryPerimeter=0;" edge="1" parent="1" target="GyxYuytBnQCfA59tnKjW-28" source="MvTKbooedZdlY5eyJeiM-89">
          <mxGeometry relative="1" as="geometry">
            <mxPoint x="313" y="553" as="sourcePoint" />
            <mxPoint x="271" y="621" as="targetPoint" />
          </mxGeometry>
        </mxCell>
        <mxCell id="GyxYuytBnQCfA59tnKjW-28" value="" style="ellipse;whiteSpace=wrap;html=1;align=center;aspect=fixed;resizable=0;perimeter=centerPerimeter;rotatable=0;allowArrows=0;points=[];outlineConnect=1;" vertex="1" parent="1">
          <mxGeometry x="972" y="637" width="10" height="10" as="geometry" />
        </mxCell>
        <mxCell id="GyxYuytBnQCfA59tnKjW-29" value="" style="rounded=0;orthogonalLoop=1;jettySize=auto;html=1;endArrow=oval;endFill=0;sketch=0;sourcePerimeterSpacing=0;targetPerimeterSpacing=0;endSize=10;exitX=0.5;exitY=0;exitDx=0;exitDy=0;strokeColor=#FFFFFF;entryX=0.4;entryY=0.9;entryDx=0;entryDy=0;entryPerimeter=0;" edge="1" parent="1" target="GyxYuytBnQCfA59tnKjW-28" source="MvTKbooedZdlY5eyJeiM-106">
          <mxGeometry relative="1" as="geometry">
            <mxPoint x="200" y="755.5" as="sourcePoint" />
            <mxPoint x="260" y="788" as="targetPoint" />
          </mxGeometry>
        </mxCell>
      </root>
    </mxGraphModel>
  </diagram>
</mxfile>
